<svg width="100" height="100" viewBox="0 0 100 100" fill="none" xmlns="http://www.w3.org/2000/svg">
<path d="M41.1609 8.14045C40.9734 8.22639 40.8562 8.3592 40.7937 8.5467C40.7234 8.74982 40.7 11.1951 40.7 18.4061L40.6922 27.9998L40.4656 28.2498L40.2391 28.5076H31.1844C26.2078 28.5076 21.7625 28.492 21.3016 28.4686C20.4656 28.4295 20.4656 28.4295 20.2469 28.6483L20.0281 28.8592L20.0047 37.4764C19.9891 43.8436 20.0125 46.1405 20.075 46.3045C20.2703 46.7811 19.5906 46.7498 30.2312 46.7498C37.1531 46.7498 40.0359 46.7733 40.2156 46.8358C40.7312 47.0155 40.6922 45.1561 40.6922 69.3436C40.6922 82.4998 40.7234 91.4451 40.7703 91.6326C40.8094 91.8045 40.9344 92.0233 41.0437 92.117L41.2469 92.2967H49.7234C59.0516 92.2967 58.5516 92.3201 58.7312 91.8201C58.7937 91.6405 58.8172 85.4451 58.8172 69.4686C58.8172 45.1405 58.7781 47.0155 59.2937 46.8358C59.4734 46.7733 62.3328 46.7498 69.2 46.7498C78.2391 46.7498 78.8719 46.742 79.1297 46.6092C79.3172 46.5233 79.4344 46.3905 79.4969 46.203C79.5672 45.9998 79.5906 43.8358 79.5906 37.5858C79.5984 28.6326 79.6062 28.8358 79.2078 28.6248C79.0906 28.5623 76.3953 28.5311 69.1609 28.5233L59.2703 28.5076L59.0437 28.2498L58.8172 27.992V18.2342C58.825 11.6717 58.8016 8.4217 58.7469 8.32014C58.7 8.24201 58.5516 8.13264 58.4187 8.08576C58.2391 8.02326 55.7078 7.99982 49.8016 7.99982C41.9891 7.99982 41.4187 8.00764 41.1609 8.14045Z" fill="black"/>
</svg>
